# xmcd
# 
# Track frame offsets:
#     150
#     17869
#     37784
#     57062
#     75796
#     92369
#     116317
#     132712
#     153875
#     174125
#     193171
#     209709
#     226619
#     245033
#     264363
#     284200
#     305834
#     320407
#     336114
# 
# Disc length: 4699
# 
# Revision: 2
# Processed by: cddbd v1.5.2PL0 Copyright (c) Steve Scherf et al.
# Submitted via: fre:ac v1.0.31
# 
DISCID=fd125913
DTITLE=Now That's What I Call Music - Now That's What I Call Old Skool Disc 3
DYEAR=2017
DGENRE=R&B
TTITLE0=Rapper’s Delight
TTITLE1=White Lines (Don’t Do It)
TTITLE2=Express Yourself
TTITLE3=Regulate
TTITLE4=Buffalo Gals
TTITLE5=Planet Rock
TTITLE6=(Hey You) The Rock Steady Crew
TTITLE7=The Breaks
TTITLE8=Push It
TTITLE9=U Can’t Touch This
TTITLE10=Ice Ice Baby
TTITLE11=Back To Life
TTITLE12=Got To Have Your Love
TTITLE13=Lovesick (Upbeat Remix)
TTITLE14=Hip Hop Hooray
TTITLE15=Mama Said Knock You Out
TTITLE16=Jump
TTITLE17=Fight For Your Right (To Party)
TTITLE18=Walk This Way
EXTD=
EXTT0=
EXTT1=
EXTT2=
EXTT3=
EXTT4=
EXTT5=
EXTT6=
EXTT7=
EXTT8=
EXTT9=
EXTT10=
EXTT11=
EXTT12=
EXTT13=
EXTT14=
EXTT15=
EXTT16=
EXTT17=
EXTT18=
PLAYORDER=
